<mxfile host="app.diagrams.net" modified="2023-11-02T08:38:02.376Z" agent="Mozilla/5.0 (Macintosh; Intel Mac OS X 10_15_7) AppleWebKit/537.36 (KHTML, like Gecko) Chrome/118.0.0.0 Safari/537.36" etag="AuxBzQgVrn_-2mw0Kahz" version="22.0.8" type="device">
  <diagram name="Page-1" id="WDaj_I8AkZ4SZt9biIRs">
    <mxGraphModel dx="2311" dy="929" grid="1" gridSize="10" guides="1" tooltips="1" connect="1" arrows="1" fold="1" page="1" pageScale="1" pageWidth="850" pageHeight="1100" math="0" shadow="0">
      <root>
        <mxCell id="0" />
        <mxCell id="1" parent="0" />
        <mxCell id="2MgjYKGOFi9tbRrR1Ug7-1" value="Actor" style="shape=umlActor;verticalLabelPosition=bottom;verticalAlign=top;html=1;outlineConnect=0;" parent="1" vertex="1">
          <mxGeometry x="40" y="80" width="30" height="60" as="geometry" />
        </mxCell>
        <mxCell id="IvajSUMuSRYEnuy0IcQs-1" style="edgeStyle=orthogonalEdgeStyle;rounded=0;orthogonalLoop=1;jettySize=auto;html=1;" edge="1" parent="1" source="2MgjYKGOFi9tbRrR1Ug7-2" target="IvajSUMuSRYEnuy0IcQs-2">
          <mxGeometry relative="1" as="geometry">
            <mxPoint x="240" y="640" as="targetPoint" />
          </mxGeometry>
        </mxCell>
        <mxCell id="IvajSUMuSRYEnuy0IcQs-7" value="" style="edgeStyle=orthogonalEdgeStyle;rounded=0;orthogonalLoop=1;jettySize=auto;html=1;" edge="1" parent="1" source="2MgjYKGOFi9tbRrR1Ug7-2">
          <mxGeometry relative="1" as="geometry">
            <mxPoint x="60" y="470" as="targetPoint" />
          </mxGeometry>
        </mxCell>
        <mxCell id="IvajSUMuSRYEnuy0IcQs-9" style="edgeStyle=orthogonalEdgeStyle;rounded=0;orthogonalLoop=1;jettySize=auto;html=1;" edge="1" parent="1" source="2MgjYKGOFi9tbRrR1Ug7-2">
          <mxGeometry relative="1" as="geometry">
            <mxPoint x="-10" y="600" as="targetPoint" />
          </mxGeometry>
        </mxCell>
        <mxCell id="2MgjYKGOFi9tbRrR1Ug7-2" value="H2 Database" style="shape=cylinder3;whiteSpace=wrap;html=1;boundedLbl=1;backgroundOutline=1;size=15;" parent="1" vertex="1">
          <mxGeometry x="160" y="410" width="160" height="120" as="geometry" />
        </mxCell>
        <mxCell id="2MgjYKGOFi9tbRrR1Ug7-8" style="edgeStyle=orthogonalEdgeStyle;rounded=0;orthogonalLoop=1;jettySize=auto;html=1;exitX=0.5;exitY=1;exitDx=0;exitDy=0;entryX=0.5;entryY=0;entryDx=0;entryDy=0;" parent="1" source="2MgjYKGOFi9tbRrR1Ug7-3" target="2MgjYKGOFi9tbRrR1Ug7-6" edge="1">
          <mxGeometry relative="1" as="geometry" />
        </mxCell>
        <mxCell id="2MgjYKGOFi9tbRrR1Ug7-3" value="RSS Content Crawler Service" style="ellipse;whiteSpace=wrap;html=1;aspect=fixed;" parent="1" vertex="1">
          <mxGeometry x="570" y="40" width="170" height="170" as="geometry" />
        </mxCell>
        <mxCell id="2MgjYKGOFi9tbRrR1Ug7-12" style="edgeStyle=orthogonalEdgeStyle;rounded=0;orthogonalLoop=1;jettySize=auto;html=1;exitX=0.5;exitY=1;exitDx=0;exitDy=0;" parent="1" source="2MgjYKGOFi9tbRrR1Ug7-4" target="2MgjYKGOFi9tbRrR1Ug7-2" edge="1">
          <mxGeometry relative="1" as="geometry" />
        </mxCell>
        <mxCell id="2MgjYKGOFi9tbRrR1Ug7-4" value="Rss Update Tracker Service" style="ellipse;whiteSpace=wrap;html=1;aspect=fixed;" parent="1" vertex="1">
          <mxGeometry x="170" y="50" width="140" height="140" as="geometry" />
        </mxCell>
        <mxCell id="2MgjYKGOFi9tbRrR1Ug7-6" value="Daily Job&amp;nbsp;&lt;br&gt;Feed Content Reader" style="shape=process;whiteSpace=wrap;html=1;backgroundOutline=1;" parent="1" vertex="1">
          <mxGeometry x="595" y="300" width="120" height="230" as="geometry" />
        </mxCell>
        <mxCell id="2MgjYKGOFi9tbRrR1Ug7-9" style="edgeStyle=orthogonalEdgeStyle;rounded=0;orthogonalLoop=1;jettySize=auto;html=1;entryX=0.043;entryY=0.343;entryDx=0;entryDy=0;entryPerimeter=0;" parent="1" source="2MgjYKGOFi9tbRrR1Ug7-1" target="2MgjYKGOFi9tbRrR1Ug7-4" edge="1">
          <mxGeometry relative="1" as="geometry" />
        </mxCell>
        <mxCell id="2MgjYKGOFi9tbRrR1Ug7-10" style="edgeStyle=orthogonalEdgeStyle;rounded=0;orthogonalLoop=1;jettySize=auto;html=1;entryX=1;entryY=0.5;entryDx=0;entryDy=0;entryPerimeter=0;" parent="1" source="2MgjYKGOFi9tbRrR1Ug7-6" target="2MgjYKGOFi9tbRrR1Ug7-2" edge="1">
          <mxGeometry relative="1" as="geometry" />
        </mxCell>
        <mxCell id="IvajSUMuSRYEnuy0IcQs-2" value="Feed Entity Table&lt;br&gt;" style="shape=internalStorage;whiteSpace=wrap;html=1;backgroundOutline=1;" vertex="1" parent="1">
          <mxGeometry x="145" y="600" width="190" height="80" as="geometry" />
        </mxCell>
        <mxCell id="IvajSUMuSRYEnuy0IcQs-8" value="Feed Configuration Table" style="shape=internalStorage;whiteSpace=wrap;html=1;backgroundOutline=1;" vertex="1" parent="1">
          <mxGeometry x="-90" y="600" width="180" height="80" as="geometry" />
        </mxCell>
      </root>
    </mxGraphModel>
  </diagram>
</mxfile>
